name C:\Users\Nicos\Documents\OpenSimProjects\SprintingProject\Study1\PredictiveResults\IC_pred_Sprinting_optimum_28-October-2023__10-02-52___HTD_Plus_6_p02_maxVel_01.mot
datacolumns 38
datarows 15
range 0.21505508 0.22923063
endheader
                time	/jointset/ground_pelvis/pelvis_tilt/value	/jointset/ground_pelvis/pelvis_list/value	/jointset/ground_pelvis/pelvis_rotation/value	/jointset/ground_pelvis/pelvis_tx/value	/jointset/ground_pelvis/pelvis_ty/value	/jointset/ground_pelvis/pelvis_tz/value	/jointset/hip_r/hip_flexion_r/value	/jointset/hip_r/hip_adduction_r/value	/jointset/hip_r/hip_rotation_r/value	/jointset/knee_r/knee_angle_r/value	/jointset/ankle_r/ankle_angle_r/value	/jointset/subtalar_r/subtalar_angle_r/value	/jointset/mtp_r/mtp_angle_r/value	/jointset/hip_l/hip_flexion_l/value	/jointset/hip_l/hip_adduction_l/value	/jointset/hip_l/hip_rotation_l/value	/jointset/knee_l/knee_angle_l/value	/jointset/ankle_l/ankle_angle_l/value	/jointset/subtalar_l/subtalar_angle_l/value	/jointset/mtp_l/mtp_angle_l/value	/jointset/back/lumbar_extension/value	/jointset/back/lumbar_bending/value	/jointset/back/lumbar_rotation/value	/jointset/acromial_r/arm_flex_r/value	/jointset/acromial_r/arm_add_r/value	/jointset/acromial_r/arm_rot_r/value	/jointset/elbow_r/elbow_flex_r/value	/jointset/radioulnar_r/pro_sup_r/value	/jointset/radius_hand_r/wrist_flex_r/value	/jointset/radius_hand_r/wrist_dev_r/value	/jointset/acromial_l/arm_flex_l/value	/jointset/acromial_l/arm_add_l/value	/jointset/acromial_l/arm_rot_l/value	/jointset/elbow_l/elbow_flex_l/value	/jointset/radioulnar_l/pro_sup_l/value	/jointset/radius_hand_l/wrist_flex_l/value	/jointset/radius_hand_l/wrist_dev_l/value	
          0.21505508	         -7.41265311	          6.48057472	        -15.75399731	          1.86265679	          0.97420766	          0.31294329	         -6.89738987	        -15.01103502	          9.49366264	        -80.80039105	        -26.41224278	        -12.43043434	         -5.00412498	         73.31891143	        -10.94348559	        -10.45854297	        -75.97689958	        -20.24876362	        -16.10281475	         15.02917967	         -9.10347002	         -6.96784319	          9.89455056	         51.46635040	        -11.58243310	         -0.12120392	        133.89760192	         84.02910493	        -15.79420455	          6.40670390	        -68.40970477	        -14.76092481	         -4.66560303	         53.85399263	         61.40969875	        -24.98313270	          6.24431690	
          0.21655522	         -7.10332014	          6.43308236	        -15.83160116	          1.87972028	          0.97546832	          0.31321196	         -6.91439489	        -15.00867097	          9.68336996	        -81.88280514	        -26.09860448	        -12.47910676	         -5.47709389	         72.18957781	        -10.96203331	        -10.77994261	        -74.25025192	        -20.59804119	        -15.67061766	         14.70794568	         -9.51617499	         -7.15355836	         10.02191908	         49.74497175	        -12.16062913	         -0.05868865	        132.41082060	         84.53620488	        -15.69825162	          6.36046886	        -67.96151990	        -14.63753236	         -5.31861984	         54.64692510	         61.18123933	        -24.80408159	          6.19808474	
          0.21655522	         -7.10332014	          6.43308236	        -15.83160116	          1.87972028	          0.97546832	          0.31321196	         -6.91439489	        -15.00867097	          9.68336996	        -81.88280514	        -26.09860448	        -12.47910676	         -5.47709389	         72.18957781	        -10.96203331	        -10.77994261	        -74.25025192	        -20.59804119	        -15.67061766	         14.70794568	         -9.51617499	         -7.15355836	         10.02191908	         49.74497175	        -12.16062913	         -0.05868865	        132.41082060	         84.53620488	        -15.69825162	          6.36046886	        -67.96151990	        -14.63753236	         -5.31861984	         54.64692510	         61.18123933	        -24.80408159	          6.19808474	
          0.21721033	         -6.96726620	          6.41400273	        -15.86385241	          1.88717866	          0.97601885	          0.31332524	         -6.91850525	        -15.00958709	          9.76343248	        -82.35505133	        -25.96078340	        -12.50373184	         -5.68523183	         71.69045328	        -10.96342198	        -10.92231645	        -73.50228279	        -20.74901000	        -15.48474548	         14.54143419	         -9.69613281	         -7.23698905	         10.07897711	         48.98787184	        -12.41951114	         -0.03711157	        131.74239681	         84.74978794	        -15.65950545	          6.34027510	        -67.76152991	        -14.58986764	         -5.60986261	         55.01197992	         61.08957703	        -24.72727795	          6.17788876	
          0.21928022	         -6.53195486	          6.35735251	        -15.94972543	          1.91077557	          0.97775831	          0.31365619	         -6.92544667	        -15.01590663	          9.99524087	        -83.84304548	        -25.52047408	        -12.59955219	         -6.34380809	         70.09116432	        -10.93236268	        -11.37295591	        -71.16446450	        -21.22017238	        -14.91376177	         13.90304769	        -10.26759576	         -7.50557134	         10.25570203	         46.58348222	        -13.25890850	         -0.00000061	        129.55881757	         85.39171183	        -15.54969535	          6.27645604	        -67.11108837	        -14.46698953	         -6.54192166	         56.24043304	         60.83081875	        -24.49077932	          6.11407276	
          0.22078035	         -6.21002426	          6.31741016	        -15.99120008	          1.92790878	          0.97901897	          0.31386379	         -6.92923280	        -15.02062458	         10.13755594	        -84.91651149	        -25.19410573	        -12.68508872	         -6.81553888	         68.91211095	        -10.87196015	        -11.69427565	        -69.49523067	        -21.55618209	        -14.51866517	         13.33052872	        -10.68774341	         -7.70146876	         10.37533026	         44.83640038	        -13.88456383	         -0.00773838	        127.91319974	         85.82324483	        -15.48208525	          6.23021551	        -66.62036336	        -14.40672898	         -7.21919146	         57.20198493	         60.67291277	        -24.32568218	          6.06782930	
          0.22078035	         -6.21002426	          6.31741016	        -15.99120008	          1.92790878	          0.97901897	          0.31386379	         -6.92923280	        -15.02062458	         10.13755594	        -84.91651149	        -25.19410573	        -12.68508872	         -6.81553888	         68.91211095	        -10.87196015	        -11.69427565	        -69.49523067	        -21.55618209	        -14.51866517	         13.33052872	        -10.68774341	         -7.70146876	         10.37533026	         44.83640038	        -13.88456383	         -0.00773838	        127.91319974	         85.82324483	        -15.48208525	          6.23021551	        -66.62036336	        -14.40672898	         -7.21919146	         57.20198493	         60.67291277	        -24.32568218	          6.06782930	
          0.22143547	         -6.06739681	          6.29969748	        -16.00256305	          1.93539940	          0.97956947	          0.31394440	         -6.93162438	        -15.02198671	         10.19163961	        -85.38377251	        -25.04914769	        -12.72663787	         -7.01845241	         68.39221480	        -10.83466686	        -11.83172913	        -68.77310863	        -21.70149630	        -14.35185556	         13.05098212	        -10.87362715	         -7.78651226	         10.42422094	         44.07403149	        -14.16160872	         -0.02152113	        127.17925260	         86.00210751	        -15.45571649	          6.21001942	        -66.40076680	        -14.38881204	         -7.51269960	         57.64156608	         60.61162636	        -24.25538194	          6.04763995	
          0.22350535	         -5.60902954	          6.24036192	        -16.00809223	          1.95910134	          0.98130804	          0.31415390	         -6.94342942	        -15.02020606	         10.32765281	        -86.85375556	        -24.57827134	        -12.86853520	         -7.63908039	         66.73224243	        -10.67179668	        -12.24826474	        -66.51951133	        -22.15497160	        -13.85037347	         12.04872981	        -11.47205706	         -8.04902693	         10.56226369	         41.67415150	        -15.04904152	         -0.10965812	        124.80445104	         86.52662298	        -15.38501407	          6.14619742	        -65.67485267	        -14.36420616	         -8.42844235	         59.07852007	         60.44788203	        -24.04100254	          5.98382524	
          0.22500549	         -5.26918674	          6.19163573	        -15.98321039	          1.97631002	          0.98256785	          0.31426155	         -6.95628896	        -15.01019428	         10.39398843	        -87.91342546	        -24.22473938	        -12.97696491	         -8.06687030	         65.51378668	        -10.51331003	        -12.52873859	        -64.91337875	        -22.47789073	        -13.51256948	         11.21290906	        -11.91833452	         -8.22977249	         10.64743704	         39.94818763	        -15.70183421	         -0.21749813	        123.03580961	         86.86417865	        -15.34574702	          6.09995441	        -65.10929154	        -14.37483344	         -9.08272743	         60.14194937	         60.35945511	        -23.89328933	          5.93759983	
          0.22500549	         -5.26918674	          6.19163573	        -15.98321039	          1.97631002	          0.98256785	          0.31426155	         -6.95628896	        -15.01019428	         10.39398843	        -87.91342546	        -24.22473938	        -12.97696491	         -8.06687030	         65.51378668	        -10.51331003	        -12.52873859	        -64.91337875	        -22.47789073	        -13.51256948	         11.21290906	        -11.91833452	         -8.22977249	         10.64743704	         39.94818763	        -15.70183421	         -0.21749813	        123.03580961	         86.86417865	        -15.34574702	          6.09995441	        -65.10929154	        -14.37483344	         -9.08272743	         60.14194937	         60.35945511	        -23.89328933	          5.93759983	
          0.22566060	         -5.11882742	          6.16840969	        -15.96477101	          1.98383262	          0.98311778	          0.31429665	         -6.96285980	        -15.00297908	         10.41473319	        -88.37483906	        -24.06709035	        -13.02476804	         -8.24728038	         64.97804100	        -10.43397438	        -12.64454942	        -64.21921199	        -22.61739830	        -13.37217014	         10.82025533	        -12.11682035	         -8.30547315	         10.68090970	         39.19915900	        -15.98899937	         -0.27632784	        122.25232040	         86.99913958	        -15.33175565	          6.07976999	        -64.84980329	        -14.38632014	         -9.36701541	         60.60660510	         60.32937946	        -23.83087500	          5.91740587	
          0.22773049	         -4.63396837	          6.08349682	        -15.87871468	          2.00762655	          0.98485758	          0.31436087	         -6.98828275	        -14.96539138	         10.45043804	        -89.82788069	        -23.56213677	        -13.18197141	         -8.78598137	         63.26943847	        -10.14864277	        -12.98001693	        -62.05554771	        -23.05091385	        -12.95759365	          9.47372019	        -12.76230670	         -8.52722457	         10.77626440	         36.85554809	        -16.90373919	         -0.51223836	        119.73913671	         87.37525444	        -15.30016069	          6.01591736	        -63.97214085	        -14.46077450	        -10.22516154	         62.06172356	         60.26686014	        -23.64255155	          5.85359059	
          0.22923063	         -4.27854029	          6.01762342	        -15.79251221	          2.02489113	          0.98610971	          0.31436457	         -7.00108548	        -14.93085094	         10.45043711	        -90.87931562	        -23.19347490	        -13.30983739	         -9.14070149	         62.02221298	         -9.90958605	        -13.19733604	        -60.51348282	        -23.36079068	        -12.68686459	          8.40660261	        -13.23979541	         -8.67696509	         10.83831332	         35.17870547	        -17.57128803	         -0.73188992	        117.88743091	         87.59517702	        -15.28923653	          5.96974607	        -63.28228093	        -14.55466062	        -10.80304991	         63.10793774	         60.25427196	        -23.51476274	          5.80736003	
          0.22923063	         -4.27854029	          6.01762342	        -15.79251221	          2.02489113	          0.98610971	          0.31436457	         -7.00108548	        -14.93085094	         10.45043711	        -90.87931562	        -23.19347490	        -13.30983739	         -9.14070149	         62.02221298	         -9.90958605	        -13.19733604	        -60.51348282	        -23.36079068	        -12.68686459	          8.40660261	        -13.23979541	         -8.67696509	         10.83831332	         35.17870547	        -17.57128803	         -0.73188992	        117.88743091	         87.59517702	        -15.28923653	          5.96974607	        -63.28228093	        -14.55466062	        -10.80304991	         63.10793774	         60.25427196	        -23.51476274	          5.80736003	
